<svg xmlns="http://www.w3.org/2000/svg" width="160" height="59" viewBox="0 0 160 59" aria-labelledby="site-logo-title">
	<title id="site-logo-title">Charles Darwin University</title>
	<path fill="#211545" fill-rule="evenodd" d="M71.99 47.727c.742 0 1.425.117 2.047.348.62.231 1.164.507 1.63.822l-.905 1.66a2.456 2.456 0 0 0-.378-.283 4.262 4.262 0 0 0-.667-.346 5.807 5.807 0 0 0-.85-.292 3.776 3.776 0 0 0-.935-.117c-.562 0-.983.105-1.259.31-.275.209-.414.5-.414.876 0 .216.052.398.157.54.101.144.252.268.451.379.198.108.446.206.747.297.3.087.65.18 1.043.28.514.137.982.287 1.401.445.42.158.775.355 1.067.592.292.238.516.52.674.851.158.331.238.738.238 1.224 0 .561-.107 1.043-.32 1.443-.212.4-.498.725-.857.97-.36.248-.777.427-1.246.541-.47.112-.962.17-1.474.17-.791 0-1.57-.118-2.341-.356a7.129 7.129 0 0 1-2.073-1.007l.903-1.761c.089.088.249.204.482.346.23.144.505.286.821.43.317.143.667.265 1.053.363.385.1.778.148 1.185.148 1.126 0 1.69-.36 1.69-1.081a.898.898 0 0 0-.193-.578 1.672 1.672 0 0 0-.55-.416 5.367 5.367 0 0 0-.858-.324c-.338-.1-.713-.208-1.127-.327a9.616 9.616 0 0 1-1.31-.451 3.432 3.432 0 0 1-.926-.578 2.168 2.168 0 0 1-.555-.77c-.124-.293-.187-.64-.187-1.043 0-.535.1-1.01.297-1.424.2-.416.471-.761.822-1.037.35-.275.759-.487 1.223-.63a5.083 5.083 0 0 1 1.495-.214zm-12.117.074v5.361c0 .445.042.873.126 1.284.085.409.227.772.43 1.088.201.316.468.57.791.763.327.192.726.29 1.2.29.484 0 .893-.1 1.222-.297.332-.198.599-.456.801-.772.203-.315.345-.677.43-1.088a6.32 6.32 0 0 0 .125-1.268v-5.361h2.03v5.361c0 .722-.087 1.398-.26 2.03a4.64 4.64 0 0 1-.814 1.66 3.896 3.896 0 0 1-1.429 1.126c-.585.276-1.28.416-2.089.416-.84 0-1.554-.145-2.14-.437a4.015 4.015 0 0 1-1.431-1.157 4.603 4.603 0 0 1-.791-1.666 7.841 7.841 0 0 1-.246-1.972v-5.361h2.045zm56.842 0V58.32h-2.045V47.8h2.045zm-8.354-.001v8.725h5.363v1.794h-7.408V47.8h2.045zm-22.991 0v1.793h-3.364v8.726h-2.028v-8.726h-3.365V47.8h8.757zm-31.497 0l4 10.519H55.77l-.98-2.62H51.12l-.964 2.62h-2.103l4.014-10.52h1.807zm37.452 0c.484 0 .93.103 1.34.304.41.202.763.47 1.058.8.297.332.53.707.697 1.127a3.506 3.506 0 0 1-.258 3.125 2.95 2.95 0 0 1-1.386 1.209l2.402 3.954H92.88l-2.148-3.526h-2.016v3.526h-2.044v-10.52h4.652zm10.133 0l4 10.519h-2.102l-.98-2.62h-3.672l-.964 2.62h-2.103l4.015-10.52h1.806zm21.953 0l4 10.519h-2.101l-.98-2.62h-3.673l-.963 2.62h-2.104l4.015-10.52h1.806zm-92.135-.034c7.34-4.74 14.75-2.226 14.75-2.226-4.82.42-7.843 6.265-13.994 10.083-8.466 5.255-17.492.647-17.492.647 7.863.44 11.41-5.07 16.736-8.504zm91.234 2.36l-1.513 4.134h2.963l-1.45-4.133zm-21.954 0l-1.512 4.134h2.963l-1.45-4.133zm-47.585 0l-1.513 4.134h2.964l-1.45-4.133zm38.22-.533h-2.474v3.408h2.562c.188 0 .364-.044.526-.133a1.35 1.35 0 0 0 .423-.363c.12-.152.214-.334.283-.542a2.13 2.13 0 0 0 .101-.666 1.87 1.87 0 0 0-.117-.681 1.765 1.765 0 0 0-.318-.54 1.458 1.458 0 0 0-.46-.358 1.188 1.188 0 0 0-.525-.125zM38.52 15.838v.038c-.011 1.252-.48 32.563-19.203 33.012C.214 48.43.116 15.838.116 15.838h38.403zm83.394 14.647c3.371 0 4.909 1.72 5.195 3.844h-3.776c-.067-.42-.288-.672-.574-.825-.288-.151-.642-.219-1.031-.219-.877 0-1.262.253-1.262.692 0 1.822 6.98.69 6.98 5.107 0 2.816-2.344 4.183-5.684 4.183-3.204 0-5.295-1.872-5.378-4.064h3.81c.083.44.321.76.657.962.322.203.743.304 1.13.304.997 0 1.654-.32 1.654-.894 0-1.838-6.983-.574-6.983-5.21 0-2.582 2.226-3.88 5.262-3.88zm-69.955.322v7.267c0 1.199.235 2.226 1.87 2.226 1.435 0 1.856-.91 1.856-2.226v-7.267h3.98v6.86c0 3.899-1.802 5.6-5.836 5.6-3.76 0-5.85-1.434-5.85-5.612v-6.848h3.98zm98.066 0l2.09 4.112 2.093-4.112h4.384l-4.518 7.655v4.485h-3.98V38.53l-4.52-7.723h4.45zm-5.16 0v3.184h-3.575v8.956h-3.978v-8.956h-3.575v-3.184h11.129zm-12.275 0v12.14h-3.98v-12.14h3.98zm-22.448 0c4.048 0 5.38 1.093 5.38 3.456 0 1.399-.624 2.58-2.04 2.967 1.282.473 2.057.779 2.057 3.221 0 1.586-.051 2.125.42 2.125v.371h-4.029c-.1-.268-.204-1.047-.204-2.124 0-1.586-.268-2.109-2.123-2.109h-1.214v4.233h-3.982v-12.14zm-26.327 0l2.128 8.076 2.208-8.076h4.014l-4.217 12.14H83.95l-4.15-12.14h4.015zm-5.006 0v12.14h-3.979v-12.14h3.979zm-13.748 0l4.336 6.626-.151-2.767v-3.86h3.812v12.141h-3.728l-4.335-6.611.151 2.766v3.845h-3.81v-12.14h3.725zm37.998 0v2.832h-5.92v1.737h5.008v2.834h-5.008v1.904h6.155v2.833H93.16v-12.14h9.898zm-81.907 4.135l-.006.005c-1.433.684-1.365 3.719-1.232 5.191.098 1.063.806 1.87 1.89 2.117.882.207 2.17-.448 2.542-.627.374-.174 1.694-.788 2.066-1.574.484-1 .311-2.055-.455-2.798-1.06-1.03-3.367-2.995-4.805-2.314zm-8.464 2.305c-.765.74-.937 1.8-.457 2.8.377.784 1.696 1.398 2.069 1.572.372.178 1.657.834 2.544.63 1.083-.251 1.79-1.057 1.888-2.12.133-1.472.2-4.507-1.236-5.19l-.003-.005c-1.437-.684-3.742 1.284-4.805 2.313zm-4.651-6.009c-.377.784-.029 2.196.066 2.598.092.403.387 1.818 1.1 2.38.873.688 1.943.738 2.83.15 1.238-.816 3.648-2.664 3.282-4.21v-.007c-.363-1.549-3.339-2.12-4.807-2.303-1.058-.133-1.99.393-2.471 1.392zm20.108-1.408c-1.468.173-4.453.731-4.828 2.272l-.005.011c-.374 1.543 2.024 3.396 3.25 4.226.883.597 1.951.547 2.835-.126.691-.53 1.017-1.945 1.115-2.347.097-.402.474-1.797.092-2.622-.468-1.005-1.4-1.536-2.459-1.414zm82.1 3.809h-1.856v2.41h1.568c1.232 0 1.888-.302 1.888-1.146 0-.86-.674-1.264-1.6-1.264zM12.26 22.446c-.848.197-1.732 1.35-1.986 1.674-.256.326-1.177 1.44-1.17 2.347.007 1.111.637 1.98 1.652 2.306 1.41.453 4.357 1.184 5.337-.07l.005-.003c.981-1.252-.434-3.933-1.207-5.195-.558-.908-1.548-1.307-2.631-1.06zm11.463 1.045c-.782 1.257-2.21 3.938-1.236 5.195l.004.005c.976 1.257 3.92.537 5.332.092 1.018-.318 1.646-1.182 1.665-2.293.02-.871-.883-2.009-1.136-2.334-.254-.327-1.113-1.492-1.993-1.707-1.079-.261-2.076.137-2.636 1.042zm54.73-7.038c4.049 0 5.379 1.095 5.379 3.456 0 1.401-.624 2.581-2.04 2.967 1.28.473 2.057.777 2.057 3.223 0 1.584-.051 2.125.422 2.125v.371h-4.029c-.103-.27-.206-1.047-.206-2.126 0-1.586-.267-2.108-2.123-2.108h-1.216v4.234H72.72V16.453zm-25.23 0c3.912 0 6.34 1.82 6.34 5.817 0 4.57-2.546 6.325-6.44 6.325h-5.23V16.453zm52.362 0v12.142h-3.98V16.453h3.98zm-38.029 0l4.35 12.142h-3.962l-.473-1.603h-3.963l-.457 1.603h-3.895l4.352-12.142h4.048zm43.545 0l4.332 6.626-.152-2.763v-3.863h3.813v12.142h-3.728l-4.333-6.613.153 2.768v3.845h-3.815V16.453h3.73zm-23.038 0l1.365 7.504h.034l1.449-7.504h3.29l1.45 7.504h.033l1.369-7.504h3.844l-3.02 12.142h-3.912l-1.4-7.049h-.033l-1.385 7.05h-3.91l-3.02-12.143h3.846zm-68.667 3.265h-.287c-.56 0-1.745.036-2.37.532-.867.69-1.16 1.724-.788 2.722.513 1.386 1.758 4.154 3.347 4.154h.007c1.59 0 2.825-2.768 3.339-4.154.371-.998.071-2.027-.79-2.722-.636-.515-1.954-.532-2.458-.532zm33.236-.433h-.76v6.475h.845c1.854 0 2.864-.976 2.864-3.27 0-2.531-.823-3.205-2.95-3.205zm12.867.825l-1.232 4.352h2.512L65.5 20.11zm13.054-.825h-1.856v2.413h1.57c1.232 0 1.89-.304 1.89-1.149 0-.859-.677-1.264-1.604-1.264zm47.122-17.507c3.373 0 4.907 1.72 5.193 3.845h-3.776c-.067-.421-.288-.676-.574-.827-.286-.15-.642-.218-1.028-.218-.878 0-1.267.252-1.267.691 0 1.82 6.983.692 6.983 5.111 0 2.816-2.345 4.18-5.684 4.18-3.203 0-5.294-1.87-5.377-4.062h3.808c.083.437.321.759.66.961.32.201.742.303 1.128.303.997 0 1.653-.322 1.653-.895 0-1.838-6.981-.572-6.981-5.209 0-2.583 2.226-3.88 5.262-3.88zm-72.451 0c3.708 0 5.783 1.838 6.103 4.958H55.55c-.12-1.264-.912-1.99-2.16-1.99-1.4 0-2.244 1.197-2.244 3.542 0 1.703.372 3.305 2.397 3.305 1.281 0 1.888-.895 2.037-2.057h3.831c-.354 3.138-2.597 5.024-5.8 5.024-4.015 0-6.443-2.46-6.443-6.407 0-3.93 2.664-6.375 6.055-6.375zm38.752.321c4.048 0 5.38 1.097 5.38 3.458 0 1.4-.625 2.58-2.04 2.969 1.28.47 2.057.773 2.057 3.218 0 1.586-.052 2.126.421 2.126v.372h-4.032c-.101-.272-.2-1.046-.2-2.127 0-1.584-.27-2.108-2.125-2.108h-1.214v4.235h-3.98V2.099zm-10.774 0l4.352 12.143H81.59l-.471-1.604h-3.965l-.457 1.604h-3.893l4.35-12.143h4.048zm-16.814 0v4.098h3.76V2.1h3.98v12.143h-3.98V9.536h-3.76v4.706h-3.982V2.099h3.982zm54.878 0v2.832h-5.92V6.67h5.01v2.832h-5.01v1.906h6.157v2.834h-10.135V2.099h9.898zm-16.494 0v9.309h5.465v2.834h-9.445V2.099h3.98zm-64.375-.008v3.552H10.822l2.292 2.317-2.292 2.314h27.575v3.577H.001V2.091h38.396zM6.054 4.683L5.32 6.18l-1.579-.537.537 1.579-1.497.738 1.497.736-.535 1.582 1.577-.54.738 1.496.734-1.497 1.58.536-.538-1.58 1.497-.737-1.497-.736.535-1.579-1.579.54-.736-1.498zm73.09 1.075l-1.23 4.35h2.511l-1.281-4.35zm12.935-.827h-1.856v2.415h1.57c1.23 0 1.886-.306 1.886-1.149 0-.86-.674-1.266-1.6-1.266z"></path></svg>
