<?xml version="1.0" encoding="utf-8"?>
<!-- Generator: Adobe Illustrator 28.0.0, SVG Export Plug-In . SVG Version: 6.00 Build 0)  -->
<svg version="1.1" id="Layer_1" xmlns="http://www.w3.org/2000/svg" xmlns:xlink="http://www.w3.org/1999/xlink" x="0px" y="0px"
	 viewBox="0 0 904 979" style="enable-background:new 0 0 904 979;" xml:space="preserve">
<style type="text/css">
	.st0{display:none;}
	.st1{display:inline;fill:#FEF5DD;}
	.st2{fill:#00449E;}
</style>
<g id="Layer_3" class="st0">
	
		<ellipse transform="matrix(1 -6.862404e-03 6.862404e-03 1 -3.3013 3.0851)" class="st1" cx="447.9" cy="482.6" rx="550" ry="534.3"/>
</g>
<g id="artwork">
	<path class="st2" d="M419.4,54l-45.9,38.9c-4.7,4-13.6,2.8-15.5-6.1C186.7,135.3,80.5,306.6,112.1,481.7
		c3.8,20.4,9.1,40.3,16.6,59.8c8.9,23.9-15.5,46.4-38.4,36.1c-6.6-3-12.2-8.7-15-15.9C9,385.4,73.4,185.7,233,81.9
		c34.9-22.7,73.4-40.1,114.6-51.1l-0.5-2.8c-1.2-7.3,5.9-12.9,12.4-10.5l57.2,20.4C424,40.1,425.2,49.5,419.4,54L419.4,54z
		 M352.6,496.7c53.9,0,97.7-43.8,97.7-97.7c0-57-70.3-157.5-97.7-192c-30.7,38.7-97.7,136.6-97.7,192
		C254.8,452.9,298.7,496.7,352.6,496.7z M435.1,481.2c-9.8,9.8-21.3,17.8-34,23.7c-3.8,13.8-6.6,28.1-6.6,42c0,29.1,8.4,56,23,78.8
		c14.5,23,35.4,41.5,60,53.4c16.9-0.5,35.2-0.7,55.3-0.9c15.9-0.2,29.3,4.7,39.6,12.2C639.2,675.8,688,616.5,688,547.1
		c0-83.2-101-229.9-146.5-286.4c-25.3,31.4-53.2,71.5-75.9,108.8c2.6,10.5,4.2,20.6,4.2,29.5C469.3,431.1,456.2,460.1,435.1,481.2
		L435.1,481.2z M476.1,697.6h-1.4c-69.8,1.6-114.8,5.4-159.6,9.1c-34,2.8-67.5,5.4-112.5,7.3l-27.2,1.2v161.5
		c84.4,7.3,159.6,33,217.7,53c43.6,15,77.3,26.5,95.9,23.9c36.8-4.9,255.7-144.8,343.8-201.3c15.7-10.1,27.4-17.6,31.6-20.2
		c7.7-4.9,12.9-12.7,14.8-20.9s0.7-16.9-3.8-24.4c-7.7-7.5-16.4-13.1-25.3-15.2c-7.3-1.6-14.8-0.9-21.6,3.5l-150,93.8
		c-98.4,61.4-137.6,52.5-246.3,27.4l-13.6-3c-10.3-2.3-9.4-17.3,1.2-18.5c29.3-2.8,67.3-6.8,128.2-12.2h0.7
		c28.6,0,34.7-22.5,25.8-41.2c-6.6-13.6-21.1-25.1-42.4-24.8C511.9,696.9,493.4,697.1,476.1,697.6L476.1,697.6z M156.4,888.1V692.9
		c0-12-9.8-21.8-21.8-21.8h-90c-12,0-21.8,9.8-21.8,21.8v195.2c0,12,9.8,21.8,21.8,21.8h90.2C146.5,909.9,156.4,900.1,156.4,888.1
		L156.4,888.1z M597.2,740.2c-0.2,5.6-1.4,11-3.5,15.9c-6.3,14.5-20.6,25.3-43.8,25.5c-27.7,2.3-50.9,4.5-70.3,6.3
		c72.7,15.2,111.3,14.1,189.4-34.7l99.4-62.1c-0.2-4.2-2.1-11.2-4.5-14.3c-7.7-7.5-16.4-13.1-25.3-15.2c-7.3-1.6-14.8-0.9-21.6,3.5
		L597.2,740.2z M509.6,78.4c-15-1.4-27.7-17.8-23.9-33.5c3.5-16.2,18.5-25.5,33.3-22.5c47.3,7.7,91.9,23.9,132.2,46.9
		C812.7,160.9,890.3,349.8,841,527.5l3,1.2c6.8,2.3,8.7,11.2,2.3,16.2l-45.7,38.7c-5.4,4.5-14.1,1.9-15.2-6.1L774.7,518
		c-1.2-7,5.9-12.9,12.4-10.5l0.2,0.2c39.8-151.6-27-311.5-164.1-389.3C588.3,98.7,550.1,85.1,509.6,78.4L509.6,78.4z"/>
</g>
</svg>
